<svg xmlns="http://www.w3.org/2000/svg" width="860" height="592" viewBox="0 0 860 592" role="img" aria-label="Engineering activity: Designed distributed audit logging architecture; Built approval workflow engine; Improved payment transaction processing; Implemented Redis-based background processing; Designed CI/CD workflows; Built internal developer tooling; Published US2UCD">
  <title>Engineering activity: Designed distributed audit logging architecture; Built approval workflow engine; Improved payment transaction processing; Implemented Redis-based background processing; Designed CI/CD workflows; Built internal developer tooling; Published US2UCD</title>
  <style>
    .t { font-family: -apple-system, BlinkMacSystemFont, 'Segoe UI', 'Noto Sans', Helvetica, Arial, sans-serif; }
    .m { font-family: ui-monospace, SFMono-Regular, 'SF Mono', Menlo, Consolas, 'Liberation Mono', monospace; }
    .tab { font-variant-numeric: tabular-nums; }
    .enter { animation: enter .6s cubic-bezier(.25,1,.5,1) both; }
    .pulse { animation: pulse 2.4s ease-in-out infinite; }
    @keyframes enter { from { opacity: 0; transform: translateY(6px); } to { opacity: 1; transform: none; } }
    @keyframes pulse { 50% { opacity: .4; } }
    
    @media (prefers-reduced-motion: reduce) { * { animation: none !important; } }
  </style>
  
  
  <defs>
    <linearGradient id="cg33" x1="0" y1="0" x2="0" y2="1">
      <stop offset="0" stop-color="#ffffff" stop-opacity="0.025"/>
      <stop offset="0.45" stop-color="#ffffff" stop-opacity="0"/>
    </linearGradient>
    <linearGradient id="hl34" x1="0" y1="0" x2="1" y2="0">
      <stop offset="0" stop-color="#ffffff" stop-opacity="0"/>
      <stop offset="0.5" stop-color="#ffffff" stop-opacity="0.09"/>
      <stop offset="1" stop-color="#ffffff" stop-opacity="0"/>
    </linearGradient>
  </defs>
  <rect x="0.5" y="0.5" width="859" height="591" rx="12" fill="#0e1116"/>
  <rect x="0.5" y="0.5" width="859" height="591" rx="12" fill="url(#cg33)" stroke="#ffffff" stroke-opacity="0.08"/>
  <line x1="12" y1="1" x2="848" y2="1" stroke="url(#hl34)"/>
  
  <rect x="24.5" y="22.5" width="29" height="29" rx="7.5" fill="#13171e" stroke="#ffffff" stroke-opacity="0.08"/>
  <g transform="translate(31 29) scale(0.6666666666666666)" fill="none" stroke="#9aa3ad" stroke-width="1.9" stroke-linecap="round" stroke-linejoin="round"><circle cx="12" cy="12" r="3"/><line x1="3" x2="9" y1="12" y2="12"/><line x1="15" x2="21" y1="12" y2="12"/></g>
  <text x="66" y="35" class="t" font-size="15" font-weight="600" fill="#e6edf3" letter-spacing="-0.15">Engineering Activity</text>
  <text x="66" y="52" class="t" font-size="12" fill="#6b737e">Selected engineering and research work</text>
  
    <g class="enter" style="animation-delay:0ms">
      <line x1="38" y1="112" x2="38" y2="154" stroke="#ffffff" stroke-opacity="0.13"/>
      <circle cx="38" cy="96" r="14" fill="#13171e" stroke="#ffffff" stroke-opacity="0.14"/>
      <g transform="translate(31 89) scale(0.5833333333333334)" fill="none" stroke="#4f94f7" stroke-width="2" stroke-linecap="round" stroke-linejoin="round"><rect x="16" y="16" width="6" height="6" rx="1"/><rect x="2" y="16" width="6" height="6" rx="1"/><rect x="9" y="2" width="6" height="6" rx="1"/><path d="M5 16v-3a1 1 0 0 1 1-1h12a1 1 0 0 1 1 1v3"/><path d="M12 12V8"/></g>
      <text x="68" y="95" class="t" font-size="14" font-weight="500" fill="#e6edf3">Designed distributed audit logging architecture</text>
      <g transform="translate(367.91 82)">
        <rect x="0.5" y="0.5" width="102" height="18" rx="9" fill="none" stroke="#ffffff" stroke-opacity="0.1"/>
        <circle cx="10" cy="9.5" r="3" fill="#4f94f7"/>
        <text x="18" y="13" class="m" font-size="9.5" letter-spacing="0.8" fill="#9aa3ad">ARCHITECTURE</text>
      </g>
      <text x="68" y="116" class="t" font-size="13" fill="#9aa3ad">Asynchronous audit logging for distributed services, built on Kafka and Redis.</text>
      <text x="68" y="135" class="m" font-size="11" fill="#6b737e">fintech · work</text>
    </g>
    <g class="enter" style="animation-delay:70ms">
      <line x1="38" y1="184" x2="38" y2="226" stroke="#ffffff" stroke-opacity="0.13"/>
      <circle cx="38" cy="168" r="14" fill="#13171e" stroke="#ffffff" stroke-opacity="0.14"/>
      <g transform="translate(31 161) scale(0.5833333333333334)" fill="none" stroke="#3fb950" stroke-width="2" stroke-linecap="round" stroke-linejoin="round"><circle cx="18" cy="18" r="3"/><circle cx="6" cy="6" r="3"/><path d="M13 6h3a2 2 0 0 1 2 2v7"/><line x1="6" x2="6" y1="9" y2="21"/></g>
      <text x="68" y="167" class="t" font-size="14" font-weight="500" fill="#e6edf3">Built approval workflow engine</text>
      <g transform="translate(269.07000000000005 154)">
        <rect x="0.5" y="0.5" width="69.5" height="18" rx="9" fill="none" stroke="#ffffff" stroke-opacity="0.1"/>
        <circle cx="10" cy="9.5" r="3" fill="#3fb950"/>
        <text x="18" y="13" class="m" font-size="9.5" letter-spacing="0.8" fill="#9aa3ad">FEATURE</text>
      </g>
      <text x="68" y="188" class="t" font-size="13" fill="#9aa3ad">Multi-level approval flows for payment and transaction operations.</text>
      <text x="68" y="207" class="m" font-size="11" fill="#6b737e">fintech · work</text>
    </g>
    <g class="enter" style="animation-delay:140ms">
      <line x1="38" y1="256" x2="38" y2="298" stroke="#ffffff" stroke-opacity="0.13"/>
      <circle cx="38" cy="240" r="14" fill="#13171e" stroke="#ffffff" stroke-opacity="0.14"/>
      <g transform="translate(31 233) scale(0.5833333333333334)" fill="none" stroke="#d29922" stroke-width="2" stroke-linecap="round" stroke-linejoin="round"><path d="m12 14 4-4"/><path d="M3.34 19a10 10 0 1 1 17.32 0"/></g>
      <text x="68" y="239" class="t" font-size="14" font-weight="500" fill="#e6edf3">Improved payment transaction processing</text>
      <g transform="translate(339.882 226)">
        <rect x="0.5" y="0.5" width="95.5" height="18" rx="9" fill="none" stroke="#ffffff" stroke-opacity="0.1"/>
        <circle cx="10" cy="9.5" r="3" fill="#d29922"/>
        <text x="18" y="13" class="m" font-size="9.5" letter-spacing="0.8" fill="#9aa3ad">PERFORMANCE</text>
      </g>
      <text x="68" y="260" class="t" font-size="13" fill="#9aa3ad">Performance and reliability work on the core payment path (Java, Oracle).</text>
      <text x="68" y="279" class="m" font-size="11" fill="#6b737e">fintech · work</text>
    </g>
    <g class="enter" style="animation-delay:210ms">
      <line x1="38" y1="328" x2="38" y2="370" stroke="#ffffff" stroke-opacity="0.13"/>
      <circle cx="38" cy="312" r="14" fill="#13171e" stroke="#ffffff" stroke-opacity="0.14"/>
      <g transform="translate(31 305) scale(0.5833333333333334)" fill="none" stroke="#3fb950" stroke-width="2" stroke-linecap="round" stroke-linejoin="round"><circle cx="18" cy="18" r="3"/><circle cx="6" cy="6" r="3"/><path d="M13 6h3a2 2 0 0 1 2 2v7"/><line x1="6" x2="6" y1="9" y2="21"/></g>
      <text x="68" y="311" class="t" font-size="14" font-weight="500" fill="#e6edf3">Implemented Redis-based background processing</text>
      <g transform="translate(392.018 298)">
        <rect x="0.5" y="0.5" width="69.5" height="18" rx="9" fill="none" stroke="#ffffff" stroke-opacity="0.1"/>
        <circle cx="10" cy="9.5" r="3" fill="#3fb950"/>
        <text x="18" y="13" class="m" font-size="9.5" letter-spacing="0.8" fill="#9aa3ad">FEATURE</text>
      </g>
      <text x="68" y="332" class="t" font-size="13" fill="#9aa3ad">Background job processing on Redis for asynchronous workloads.</text>
      <text x="68" y="351" class="m" font-size="11" fill="#6b737e">fintech · work</text>
    </g>
    <g class="enter" style="animation-delay:280ms">
      <line x1="38" y1="400" x2="38" y2="442" stroke="#ffffff" stroke-opacity="0.13"/>
      <circle cx="38" cy="384" r="14" fill="#13171e" stroke="#ffffff" stroke-opacity="0.14"/>
      <g transform="translate(31 377) scale(0.5833333333333334)" fill="none" stroke="#8d73e6" stroke-width="2" stroke-linecap="round" stroke-linejoin="round"><rect width="8" height="8" x="3" y="3" rx="2"/><path d="M7 11v4a2 2 0 0 0 2 2h4"/><rect width="8" height="8" x="13" y="13" rx="2"/></g>
      <text x="68" y="383" class="t" font-size="14" font-weight="500" fill="#e6edf3">Designed CI/CD workflows</text>
      <g transform="translate(246.474 370)">
        <rect x="0.5" y="0.5" width="56.5" height="18" rx="9" fill="none" stroke="#ffffff" stroke-opacity="0.1"/>
        <circle cx="10" cy="9.5" r="3" fill="#8d73e6"/>
        <text x="18" y="13" class="m" font-size="9.5" letter-spacing="0.8" fill="#9aa3ad">CI/CD</text>
      </g>
      <text x="68" y="404" class="t" font-size="13" fill="#9aa3ad">Build, test and deployment pipelines for backend services.</text>
      <text x="68" y="423" class="m" font-size="11" fill="#6b737e">platform · work</text>
    </g>
    <g class="enter" style="animation-delay:350ms">
      <line x1="38" y1="472" x2="38" y2="514" stroke="#ffffff" stroke-opacity="0.13"/>
      <circle cx="38" cy="456" r="14" fill="#13171e" stroke="#ffffff" stroke-opacity="0.14"/>
      <g transform="translate(31 449) scale(0.5833333333333334)" fill="none" stroke="#1ea394" stroke-width="2" stroke-linecap="round" stroke-linejoin="round"><path d="M14.7 6.3a1 1 0 0 0 0 1.4l1.6 1.6a1 1 0 0 0 1.4 0l3.106-3.105c.32-.322.863-.22.983.218a6 6 0 0 1-8.259 7.057l-7.91 7.91a1 1 0 0 1-2.999-3l7.91-7.91a6 6 0 0 1 7.057-8.259c.438.12.54.662.219.984z"/></g>
      <text x="68" y="455" class="t" font-size="14" font-weight="500" fill="#e6edf3">Built internal developer tooling</text>
      <g transform="translate(267.53 442)">
        <rect x="0.5" y="0.5" width="69.5" height="18" rx="9" fill="none" stroke="#ffffff" stroke-opacity="0.1"/>
        <circle cx="10" cy="9.5" r="3" fill="#1ea394"/>
        <text x="18" y="13" class="m" font-size="9.5" letter-spacing="0.8" fill="#9aa3ad">TOOLING</text>
      </g>
      <text x="68" y="476" class="t" font-size="13" fill="#9aa3ad">Internal tools for automation, observability and developer productivity.</text>
      <text x="68" y="495" class="m" font-size="11" fill="#6b737e">platform · work</text>
    </g>
    <g class="enter" style="animation-delay:420ms">
      
      <circle cx="38" cy="528" r="14" fill="#13171e" stroke="#ffffff" stroke-opacity="0.14"/>
      <g transform="translate(31 521) scale(0.5833333333333334)" fill="none" stroke="#e0823d" stroke-width="2" stroke-linecap="round" stroke-linejoin="round"><path d="M21.42 10.922a1 1 0 0 0-.019-1.838L12.83 5.18a2 2 0 0 0-1.66 0L2.6 9.08a1 1 0 0 0 0 1.832l8.57 3.908a2 2 0 0 0 1.66 0z"/><path d="M22 10v6"/><path d="M6 12.5V16a6 3 0 0 0 12 0v-3.5"/></g>
      <text x="68" y="527" class="t" font-size="14" font-weight="500" fill="#e6edf3">Published US2UCD</text>
      <g transform="translate(202.92 514)">
        <rect x="0.5" y="0.5" width="76" height="18" rx="9" fill="none" stroke="#ffffff" stroke-opacity="0.1"/>
        <circle cx="10" cy="9.5" r="3" fill="#e0823d"/>
        <text x="18" y="13" class="m" font-size="9.5" letter-spacing="0.8" fill="#9aa3ad">RESEARCH</text>
      </g>
      <text x="68" y="548" class="t" font-size="13" fill="#9aa3ad">NLP pipeline (Stanza, CoreNLP) that generates UML use case diagrams from user stories.</text>
      <text x="68" y="567" class="m" font-size="11" fill="#6b737e">MSc research · UNIMAS</text>
    </g>
</svg>
